<?xml version="1.0" encoding="UTF-8" standalone="no"?>
<!-- Created with Inkscape (http://www.inkscape.org/) -->

<svg
   width="48"
   height="48"
   viewBox="0 0 12.7 12.7"
   version="1.1"
   id="svg5"
   inkscape:version="1.2.2 (732a01da63, 2022-12-09)"
   sodipodi:docname="PriorityPilotLogov2 - z napisem,.svg"
   xmlns:inkscape="http://www.inkscape.org/namespaces/inkscape"
   xmlns:sodipodi="http://sodipodi.sourceforge.net/DTD/sodipodi-0.dtd"
   xmlns:xlink="http://www.w3.org/1999/xlink"
   xmlns="http://www.w3.org/2000/svg"
   xmlns:svg="http://www.w3.org/2000/svg">
  <sodipodi:namedview
     id="namedview7"
     pagecolor="#ffffff"
     bordercolor="#000000"
     borderopacity="0.25"
     inkscape:showpageshadow="2"
     inkscape:pageopacity="0.0"
     inkscape:pagecheckerboard="0"
     inkscape:deskcolor="#d1d1d1"
     inkscape:document-units="mm"
     showgrid="false"
     inkscape:zoom="5.7299664"
     inkscape:cx="10.994829"
     inkscape:cy="62.914854"
     inkscape:window-width="1920"
     inkscape:window-height="991"
     inkscape:window-x="-9"
     inkscape:window-y="-9"
     inkscape:window-maximized="1"
     inkscape:current-layer="layer1" />
  <defs
     id="defs2">
    <rect
       x="602.44684"
       y="312.74179"
       width="75.393112"
       height="77.487366"
       id="rect4249" />
    <linearGradient
       inkscape:collect="always"
       id="linearGradient2674">
      <stop
         style="stop-color:#8a8ad9;stop-opacity:0.79607844;"
         offset="0"
         id="stop2670" />
      <stop
         style="stop-color:#34c7ff;stop-opacity:0.65882355;"
         offset="1"
         id="stop2672" />
    </linearGradient>
    <rect
       x="171.77983"
       y="295.18488"
       width="322.82761"
       height="100.69852"
       id="rect2666" />
    <rect
       x="194.97998"
       y="311.47437"
       width="272.47836"
       height="72.562172"
       id="rect2608" />
    <linearGradient
       inkscape:collect="always"
       id="linearGradient1575">
      <stop
         style="stop-color:#33c7ff;stop-opacity:0.65957445;"
         offset="0"
         id="stop1571" />
      <stop
         style="stop-color:#9086d7;stop-opacity:0.80425531;"
         offset="1"
         id="stop1573" />
    </linearGradient>
    <linearGradient
       inkscape:collect="always"
       xlink:href="#linearGradient1575"
       id="linearGradient1577"
       x1="45.05827"
       y1="85.30632"
       x2="144.05486"
       y2="85.30632"
       gradientUnits="userSpaceOnUse"
       gradientTransform="matrix(0.09307019,0,0,0.09307019,-3.4999421,-3.4585874)" />
    <linearGradient
       inkscape:collect="always"
       xlink:href="#linearGradient2674"
       id="linearGradient2676-2"
       x1="173.02148"
       y1="325.53815"
       x2="320.86523"
       y2="325.53815"
       gradientUnits="userSpaceOnUse" />
    <rect
       x="171.77983"
       y="295.18488"
       width="322.82761"
       height="100.69852"
       id="rect2666-6" />
  </defs>
  <g
     inkscape:label="Warstwa 1"
     inkscape:groupmode="layer"
     id="layer1">
    <path
       id="path236"
       style="fill:url(#linearGradient1577);fill-opacity:1;stroke-width:0.09307"
       d="M 9.492007,3.1432567 C 9.1377689,3.149944 7.5978681,4.0412449 7.5978681,4.0412449 l -5.0687692,0.048626 c -1.3248664,0.012709 -2.26091439,1.3978429 -2.26091439,1.3978429 0,0 0.4013749,0.022154 1.01418669,0.052522 0.6128118,0.030368 3.6979725,1.4911498 4.5437609,1.5239486 0.8457883,0.032798 -0.5477647,-1.3623805 0.1511634,-1.3550861 0.6989281,0.00729 1.2294589,-0.00511 1.4016909,-0.051268 0.6889288,-0.1845971 1.1131188,-0.9429578 1.1131188,-0.9429578 0,0 0.4021328,-0.6623972 0.9587807,-1.330173 C 9.5974465,3.2088799 9.5911937,3.1413887 9.4920089,3.1432612 Z M 2.7399008,4.1800482 c 0.059079,0 0.1109514,0.00422 0.1556847,0.012648 0.045296,0.00844 0.084098,0.021977 0.1163429,0.040546 0.032243,0.018569 0.058935,0.041639 0.080078,0.069209 0.021144,0.027571 0.03478,0.059618 0.040879,0.096191 0.00667,0.036572 0.00522,0.075413 -0.00438,0.1164872 -0.00866,0.037132 -0.02595,0.078766 -0.051895,0.1249037 -0.025384,0.04614 -0.056437,0.091165 -0.093113,0.1350518 -0.036678,0.043887 -0.074288,0.081005 -0.1128794,0.1113888 -0.044835,0.035445 -0.098266,0.065566 -0.160302,0.090323 -0.061343,0.024196 -0.1150781,0.036267 -0.1612155,0.036267 -0.019696,0 -0.036356,-0.00333 -0.049969,-0.0101 -0.012925,-0.00731 -0.018231,-0.016039 -0.015872,-0.026166 0.00366,-0.015755 0.013025,-0.030406 0.027992,-0.043909 0.015095,-0.014068 0.040723,-0.031206 0.076953,-0.051462 0.030678,-0.015755 0.060422,-0.034619 0.089169,-0.05656 0.035346,-0.030945 0.063527,-0.063855 0.0846,-0.09874 0.021638,-0.034885 0.038115,-0.076516 0.049392,-0.1249038 0.010755,-0.04614 0.011982,-0.085282 0.00372,-0.1173529 -0.00828,-0.032071 -0.02721,-0.060723 -0.056752,-0.086043 L 2.555371,4.7725383 2.518915,4.8383807 C 2.503881,4.8642637 2.481461,4.9086837 2.451582,4.971701 2.3987,5.0802933 2.355226,5.1556943 2.3211952,5.1978931 c -0.015017,0.018569 -0.033076,0.036872 -0.054153,0.054875 -0.032515,0.02363 -0.071663,0.044425 -0.1174966,0.062428 -0.045141,0.017443 -0.082626,0.026166 -0.1124471,0.026166 -0.019696,0 -0.034141,-0.00563 -0.043331,-0.016882 -0.0085,-0.011815 -0.010333,-0.028092 -0.00549,-0.048914 0.00538,-0.02307 0.01888,-0.056839 0.040496,-0.101289 0.022176,-0.044453 0.064639,-0.1240596 0.127405,-0.2388414 l 0.026211,-0.047277 0.028042,-0.051462 0.2604362,-0.4583003 0.018708,-0.029529 c -0.018569,0 -0.034752,0.00167 -0.048481,0.00505 -0.013597,0.00283 -0.029896,0.00758 -0.048914,0.014335 -0.02322,0.00788 -0.038725,0.011832 -0.046606,0.011832 -0.00957,0 -0.016632,-0.00366 -0.021116,-0.010966 -0.0045,-0.00731 -0.00549,-0.016338 -0.003,-0.027032 0.00511,-0.021943 0.019074,-0.044408 0.041894,-0.067477 0.023514,-0.02363 0.049369,-0.040262 0.077482,-0.049824 0.036905,-0.013502 0.082682,-0.024202 0.1374082,-0.032077 0.055419,-0.00844 0.1093215,-0.012648 0.1616483,-0.012648 z m 1.3828855,0.00167 c 0.028131,0 0.047044,0.00705 0.056704,0.021111 0.010356,0.013502 0.011804,0.036272 0.00433,0.068344 -0.00931,0.039946 -0.025201,0.077928 -0.04766,0.1139377 -0.021766,0.035445 -0.046811,0.064451 -0.075125,0.086956 -0.028187,0.021943 -0.054392,0.032898 -0.078588,0.032898 h -0.00255 c -0.052494,-0.00167 -0.071516,-0.033481 -0.057089,-0.095373 0.00721,-0.030945 0.023125,-0.066645 0.04776,-0.107156 0.025328,-0.041073 0.050169,-0.071496 0.074452,-0.091189 0.01262,-0.010689 0.024507,-0.018247 0.035684,-0.022748 0.011737,-0.00449 0.025767,-0.00678 0.042083,-0.00678 z m 1.9031811,0 c 0.028131,0 0.047044,0.00705 0.056705,0.021111 0.010356,0.013502 0.011804,0.036272 0.00433,0.068344 -0.00931,0.039946 -0.025201,0.077928 -0.04766,0.1139377 -0.021766,0.035445 -0.046811,0.064451 -0.075124,0.086956 -0.028186,0.021943 -0.054392,0.032898 -0.078589,0.032898 h -0.0025 c -0.052494,-0.00167 -0.071565,-0.033481 -0.057137,-0.095373 0.00721,-0.030945 0.02317,-0.066645 0.047804,-0.107156 0.025328,-0.041073 0.050119,-0.071496 0.074403,-0.091189 0.01262,-0.010689 0.024507,-0.018247 0.035684,-0.022748 0.011743,-0.00449 0.025767,-0.00678 0.042083,-0.00678 z m 0.5708915,0.020245 c 0.022509,0 0.038448,0.00505 0.047904,0.0152 0.00946,0.010128 0.011959,0.024779 0.0075,0.043909 -0.003,0.012942 -0.017626,0.039358 -0.043814,0.079309 -0.044169,0.066393 -0.080013,0.1285604 -0.1075889,0.1865135 0.00931,0.00111 0.018169,0.00283 0.026644,0.00511 0.032582,0.00505 0.053454,0.010949 0.062572,0.017698 0.00925,0.00619 0.011871,0.017748 0.00794,0.03463 -0.00695,0.029818 -0.020944,0.057357 -0.042038,0.082675 -0.021094,0.025317 -0.045402,0.043925 -0.072912,0.055743 -0.020534,0.00844 -0.051972,0.014068 -0.094267,0.016882 -0.012431,0.021943 -0.027576,0.052017 -0.045496,0.090275 -0.012936,0.033758 -0.029446,0.08046 -0.049536,0.140102 -0.00849,0.021943 -0.014973,0.042477 -0.019429,0.06161 -0.020722,0.088899 0.011932,0.1333686 0.098019,0.1333686 h 0.00511 0.0025 c 0.010128,0 0.014829,0.00166 0.01404,0.00505 -0.00211,0.009 -0.015228,0.024213 -0.039341,0.045596 -0.024113,0.021383 -0.049597,0.040196 -0.076472,0.056512 -0.028692,0.016882 -0.058848,0.030417 -0.090467,0.040546 -0.031616,0.010128 -0.059236,0.015195 -0.082868,0.015195 -0.059079,0 -0.102516,-0.019979 -0.1303396,-0.059927 -0.02726,-0.039946 -0.033237,-0.092836 -0.017892,-0.1586665 0.00656,-0.028131 0.019923,-0.064996 0.040113,-0.1105713 0.02075,-0.045574 0.050468,-0.106626 0.08912,-0.183147 0.00653,-0.013502 0.013475,-0.027598 0.020828,-0.042227 0.00748,-0.015189 0.011815,-0.024169 0.013036,-0.026982 -0.022376,-5.55e-4 -0.03731,-0.00533 -0.044774,-0.014335 -0.00746,-0.009 -0.00881,-0.023658 -0.00411,-0.043909 0.00826,-0.035445 0.029568,-0.068915 0.063918,-0.1004233 0.034918,-0.031511 0.071538,-0.051234 0.1099469,-0.059109 l 0.00577,-0.0101 c 0.061528,-0.1046549 0.1107719,-0.1783817 0.1477479,-0.2211432 0.017664,-0.020256 0.039868,-0.038259 0.066612,-0.054009 0.049752,-0.027571 0.093761,-0.041361 0.1320211,-0.041361 z M 4.7517774,4.4956765 c 0.083836,0 0.1234825,0.00984 0.1188919,0.02953 -0.00527,0.022504 -0.026932,0.034624 -0.065025,0.036311 -0.046228,0.00283 -0.091731,0.015744 -0.1364947,0.038814 -0.044763,0.02307 -0.087242,0.054558 -0.1275004,0.094507 -0.039696,0.039946 -0.074098,0.084976 -0.1032131,0.1350519 -0.028553,0.050074 -0.049347,0.1029638 -0.062331,0.1586665 -0.014296,0.06133 -0.011493,0.1108687 0.00841,0.1485668 0.02004,0.037138 0.053132,0.055694 0.099269,0.055694 0.04276,0 0.085295,-0.021954 0.127597,-0.065843 0.042299,-0.043886 0.070286,-0.095101 0.083926,-0.1536163 0.011149,-0.047827 0.011416,-0.09255 8.88e-4,-0.1341861 -0.00986,-0.042199 -0.030567,-0.077644 -0.062139,-0.1063392 -0.013302,-0.012942 -0.019302,-0.022221 -0.017986,-0.027848 0.00183,-0.00788 0.016222,-0.019995 0.043093,-0.036311 0.029946,-0.017442 0.062327,-0.032049 0.097153,-0.043864 0.034824,-0.011815 0.063233,-0.017748 0.085177,-0.017748 0.025317,0 0.047638,0.00679 0.066997,0.020295 0.020051,0.012942 0.035895,0.031755 0.047566,0.056512 0.011804,0.024196 0.01848,0.052339 0.020006,0.084408 0.00222,0.031511 -8.325e-4,0.065279 -0.00924,0.1012885 -0.013902,0.059642 -0.038931,0.1187154 -0.075077,0.1772317 C 4.855735,5.1047498 4.81523,5.1517541 4.770263,5.187764 4.7123765,5.233337 4.6465596,5.270712 4.5727835,5.2999707 4.4997016,5.3286677 4.433055,5.3430137 4.372851,5.3430137 c -0.058516,0 -0.1144282,-0.010095 -0.1676603,-0.030345 -0.052671,-0.020256 -0.092005,-0.046978 -0.118026,-0.080175 -0.034519,-0.045013 -0.042127,-0.1089014 -0.022842,-0.1916119 0.015211,-0.065268 0.04645,-0.1305283 0.093738,-0.1957963 0.047288,-0.065268 0.1044096,-0.1243416 0.1713158,-0.1772312 0.0676,-0.053454 0.1378411,-0.095386 0.2107537,-0.1257695 0.073607,-0.030945 0.1441493,-0.046411 0.2116677,-0.046411 z m -1.3082413,0.032898 c 0.039946,0 0.058534,0.024235 0.055694,0.072624 0.00945,-0.00675 0.018869,-0.014662 0.028281,-0.023664 0.020906,-0.019696 0.036594,-0.032626 0.047039,-0.038814 0.010578,-0.00675 0.021755,-0.01015 0.03357,-0.01015 0.048387,0 0.061446,0.047865 0.039147,0.1435167 -0.012198,0.052327 -0.029618,0.1029344 -0.052278,0.1518855 -0.022665,0.048953 -0.046334,0.088907 -0.070989,0.1198536 -0.024091,0.030945 -0.044586,0.046412 -0.061466,0.046412 -0.018569,0 -0.019662,-0.03514 -0.00327,-0.1054734 0.00866,-0.037138 0.013164,-0.066138 0.013513,-0.086957 0.00105,-0.021383 -0.00155,-0.037965 -0.00779,-0.04978 -0.024224,0.031511 -0.052005,0.1035132 -0.083301,0.2160441 -0.019152,0.065268 -0.031505,0.1063408 -0.037127,0.1232205 l -0.00731,0.016882 c -0.00222,0.00957 -0.00659,0.023358 -0.013036,0.041361 -0.00867,0.02757 -0.017004,0.050085 -0.025012,0.067526 -0.008,0.017442 -0.017359,0.032094 -0.027992,0.043909 -0.0105,0.011255 -0.023974,0.023325 -0.040496,0.036261 -0.049863,0.037699 -0.095628,0.05656 -0.1372645,0.05656 -0.033758,0 -0.055921,-0.01237 -0.066467,-0.037127 -0.00998,-0.024757 -0.00852,-0.064714 0.00433,-0.1198536 0.010228,-0.043886 0.027571,-0.09789 0.052089,-0.162033 0.025212,-0.064705 0.050857,-0.1226633 0.076856,-0.1738647 l 0.011832,-0.021982 c 7.77e-4,-0.00339 0.00416,-0.010372 0.010006,-0.021066 0.038653,-0.076521 0.070945,-0.1330595 0.096912,-0.1696321 0.0261,-0.037133 0.054164,-0.067 0.084167,-0.089505 0.026011,-0.017442 0.052799,-0.026166 0.080367,-0.026166 z m 1.9031811,0 c 0.039946,0 0.058534,0.024235 0.055694,0.072624 0.00945,-0.00675 0.018869,-0.014662 0.028281,-0.023664 0.020905,-0.019696 0.036594,-0.032626 0.047039,-0.038814 0.010578,-0.00675 0.021755,-0.01015 0.03357,-0.01015 0.048387,0 0.061446,0.047865 0.039147,0.1435167 -0.012198,0.052327 -0.029618,0.1029344 -0.052277,0.1518855 -0.022665,0.048953 -0.046334,0.088907 -0.070989,0.1198536 -0.024091,0.030945 -0.044586,0.046412 -0.061466,0.046412 -0.018569,0 -0.019662,-0.03514 -0.00327,-0.1054734 0.00866,-0.037138 0.013164,-0.066138 0.013513,-0.086957 0.00105,-0.021383 -0.00155,-0.037965 -0.00779,-0.04978 -0.024224,0.031511 -0.052005,0.1035133 -0.083301,0.2160442 -0.019152,0.065268 -0.031505,0.1063408 -0.037133,0.1232205 l -0.00731,0.016882 c -0.00222,0.00957 -0.00659,0.023358 -0.013036,0.041361 -0.00867,0.02757 -0.017004,0.050085 -0.025007,0.067526 -0.008,0.017442 -0.017359,0.032094 -0.027992,0.043909 -0.0105,0.011255 -0.023974,0.023325 -0.040496,0.036261 -0.049863,0.037699 -0.095628,0.05656 -0.1372638,0.05656 -0.033758,0 -0.055922,-0.01237 -0.066468,-0.037127 -0.00998,-0.024757 -0.00852,-0.064714 0.00433,-0.1198536 0.010228,-0.043886 0.027621,-0.09789 0.052133,-0.162033 0.025212,-0.064705 0.050807,-0.1226633 0.076808,-0.1738647 l 0.011832,-0.021982 c 7.769e-4,-0.00339 0.00416,-0.010372 0.010006,-0.021066 0.038653,-0.076521 0.070945,-0.1330596 0.096912,-0.1696321 0.0261,-0.037133 0.054164,-0.067 0.084167,-0.089505 0.026011,-0.017443 0.052799,-0.026167 0.080367,-0.026167 z m 1.5470833,0.00344 c 0.036572,0 0.057761,0.014046 0.063582,0.042177 0.00652,0.02757 0.00261,0.092575 -0.011688,0.1949789 -0.01545,0.1097178 -0.024374,0.2180276 -0.026788,0.3249322 9.32e-5,0.016316 -5.55e-4,0.038831 -0.00222,0.067526 h 0.00339 c 0.022931,-0.033198 0.048892,-0.073457 0.077914,-0.1207194 0.00878,-0.013502 0.040102,-0.063298 0.09393,-0.1493842 0.031194,-0.051761 0.055296,-0.09365 0.072335,-0.1257213 l 0.019429,-0.036311 c 0.027743,-0.056266 0.060056,-0.09957 0.09696,-0.1299539 0.023592,-0.01913 0.049214,-0.034902 0.076856,-0.047277 0.027643,-0.012381 0.0516,-0.018563 0.071855,-0.018563 0.037132,0 0.052028,0.015722 0.04468,0.047227 -0.00366,0.015755 -0.014451,0.040246 -0.032321,0.073441 -0.017864,0.033198 -0.040135,0.070921 -0.066853,0.1131203 -0.026022,0.041639 -0.056144,0.087477 -0.090323,0.137553 -0.033614,0.050074 -0.070081,0.1015443 -0.109417,0.1544338 -0.072297,0.100153 -0.1415637,0.1848331 -0.2077718,0.2540397 -0.047549,0.049514 -0.094337,0.093425 -0.14039,0.1316854 -0.046056,0.038259 -0.093148,0.072588 -0.1413045,0.1029721 -0.047594,0.030384 -0.091475,0.053154 -0.1315894,0.068344 -0.03968,0.015755 -0.074705,0.023614 -0.1050882,0.023614 -0.025317,0 -0.035412,-0.010955 -0.030301,-0.032898 0.00405,-0.017442 0.012842,-0.038281 0.026355,-0.062475 0.013519,-0.024196 0.029813,-0.046961 0.048864,-0.068344 0.019912,-0.020256 0.043237,-0.038259 0.069979,-0.054009 0.03398,-0.020256 0.082386,-0.043326 0.1452481,-0.069209 -0.020511,-0.056828 -0.035601,-0.101855 -0.045307,-0.1350518 -0.00971,-0.033198 -0.019196,-0.074524 -0.028469,-0.1240374 -0.020561,-0.1097177 -0.020423,-0.2093063 4.656e-4,-0.2987685 0.015866,-0.068081 0.037216,-0.1235041 0.064063,-0.1662657 0.023719,-0.036572 0.057621,-0.062482 0.1016736,-0.077674 0.035651,-0.012942 0.066412,-0.019385 0.092295,-0.019385 z m -2.9083741,0.010966 c 0.032632,0 0.055313,0.014906 0.068055,0.04473 0.013302,0.029818 0.014307,0.068916 0.00305,0.1173047 -0.016654,0.071457 -0.046595,0.1552763 -0.089842,0.2514902 -0.042555,0.095652 -0.094465,0.1952402 -0.1557325,0.2987684 -0.024335,0.041639 -0.048892,0.069778 -0.073682,0.084408 -0.016727,0.009 -0.03494,0.013513 -0.054636,0.013513 h -0.00166 C 3.6560559,5.351536 3.6356829,5.339999 3.6198499,5.318616 3.6042779,5.296112 3.5949709,5.271872 3.5920019,5.245992 3.5897219,5.219548 3.5934419,5.185522 3.6031619,5.1438855 3.6247999,5.0510475 3.6663539,4.9463888 3.7278247,4.8299189 3.7899897,4.7128866 3.8491157,4.628206 3.9052002,4.5758792 3.9277592,4.553936 3.9545252,4.542981 3.9854712,4.542981 Z m 1.9031806,0 c 0.032632,0 0.055313,0.014906 0.068055,0.04473 0.013302,0.029818 0.014307,0.068916 0.00305,0.1173047 -0.016654,0.071457 -0.046595,0.1552763 -0.089842,0.2514902 -0.042554,0.095652 -0.094465,0.1952402 -0.1557331,0.2987684 -0.024335,0.041639 -0.048892,0.069778 -0.073682,0.084408 -0.016727,0.009 -0.034946,0.013513 -0.054636,0.013513 h -0.00167 C 5.5592324,5.351536 5.5388598,5.339999 5.5230267,5.318616 5.5074545,5.296112 5.4981477,5.271872 5.4951787,5.245992 5.4929037,5.219548 5.4966217,5.185522 5.506339,5.1438855 5.527977,5.0510475 5.5695309,4.9463888 5.6310019,4.8299189 5.6931671,4.7128866 5.7522934,4.628206 5.8083774,4.5758792 5.8309366,4.553936 5.8577025,4.542981 5.8886488,4.542981 Z" />
    <text
       xml:space="preserve"
       transform="scale(0.26458333)"
       id="text2606"
       style="font-size:48px;font-family:Forte;-inkscape-font-specification:Forte;white-space:pre;shape-inside:url(#rect2608);fill:#ffffff;fill-opacity:0;stroke-width:3.77953" />
    <text
       xml:space="preserve"
       transform="matrix(0.05450417,0,0,0.08658234,-3.4486536,-20.533566)"
       id="text2664-2"
       style="font-size:48px;font-family:Forte;-inkscape-font-specification:Forte;white-space:pre;shape-inside:url(#rect2666-6);fill:url(#linearGradient2676-2);fill-opacity:1;stroke-width:3.77953"><tspan
         x="171.7793"
         y="338.8188"
         id="tspan350"><tspan
           style="font-family:Elephant;-inkscape-font-specification:Elephant"
           id="tspan348">Pilot</tspan></tspan></text>
  </g>
</svg>
